<svg id="logo" xmlns="http://www.w3.org/2000/svg" viewBox="0 0 186.83 42.21"><defs><style>.cls-1,.cls-3{fill:#fff;}.cls-2{isolation:isolate;}.cls-3{stroke:#fff;stroke-miterlimit:10;stroke-width:1.3px;}</style></defs><title>logotype</title><path class="cls-1" d="M16.16,27.21h9.9v2.47h-9.9Z" transform="translate(0.04)"/><path class="cls-1" d="M16.16,22.26h9.9v2.47h-9.9Z" transform="translate(0.04)"/><path class="cls-1" d="M16.16,0h9.9V9.89h-9.9Z" transform="translate(0.04)"/><path class="cls-1" d="M16.16,12.37h9.9v2.47h-9.9Z" transform="translate(0.04)"/><path class="cls-1" d="M16.16,17.31h9.9v2.48h-9.9Z" transform="translate(0.04)"/><path class="cls-1" d="M42.22,39.74H39.66V15.19l-5-1.65v26.2H32.24V5H28.53V39.74H26.06V32.15h-9.9v7.59H13.69V5H10V39.74H7.51V13.54L2.56,15.19V39.74H0v2.47H42.22Z" transform="translate(0.04)"/><g class="cls-2"><path class="cls-3" d="M52.83,33.78H49.94V8.41h3.11v9.05a6.18,6.18,0,0,1,5-2.47,7.65,7.65,0,0,1,3.21.68,6.62,6.62,0,0,1,2.49,1.92,9.37,9.37,0,0,1,1.53,3,12.24,12.24,0,0,1,.56,3.73q0,4.73-2.34,7.31a7.32,7.32,0,0,1-5.61,2.58,5.84,5.84,0,0,1-5.1-2.72Zm0-9.33a9.54,9.54,0,0,0,.9,4.78,4.46,4.46,0,0,0,7.51.63,8,8,0,0,0,1.49-5.29c0-2.4-.47-4.17-1.43-5.31a4.34,4.34,0,0,0-3.45-1.71,4.48,4.48,0,0,0-3.53,1.77A7.79,7.79,0,0,0,52.79,24.45Z" transform="translate(0.04)"/><path class="cls-3" d="M81.71,33.78v-2.7a6.72,6.72,0,0,1-5.83,3.12,7.36,7.36,0,0,1-3-.63A4.89,4.89,0,0,1,70.75,32a5.76,5.76,0,0,1-1-2.31,15.62,15.62,0,0,1-.19-2.91V15.4h3.11V25.59a17.84,17.84,0,0,0,.19,3.29,3.22,3.22,0,0,0,1.25,1.93,3.83,3.83,0,0,0,2.35.7,5.1,5.1,0,0,0,2.63-.72,3.92,3.92,0,0,0,1.74-1.95,9.83,9.83,0,0,0,.51-3.59V15.4H84.5V33.78Z" transform="translate(0.04)"/><path class="cls-3" d="M89.39,12V8.41h3.12V12Zm0,21.79V15.4h3.12V33.78Z" transform="translate(0.04)"/><path class="cls-3" d="M97.18,33.78V8.41h3.12V33.78Z" transform="translate(0.04)"/><path class="cls-3" d="M117.05,33.78V31.46a5.73,5.73,0,0,1-5.14,2.74,7.16,7.16,0,0,1-4-1.22A7.94,7.94,0,0,1,105,29.6a11.76,11.76,0,0,1-1-5,12.86,12.86,0,0,1,.92-5,7.18,7.18,0,0,1,2.75-3.44,7.39,7.39,0,0,1,4.1-1.19,6.11,6.11,0,0,1,3,.7,6.22,6.22,0,0,1,2.11,1.82V8.41h3.1V33.78Zm-9.85-9.17a8,8,0,0,0,1.49,5.28,4.49,4.49,0,0,0,3.51,1.74A4.39,4.39,0,0,0,115.67,30a7.69,7.69,0,0,0,1.43-5.09c0-2.52-.49-4.36-1.46-5.54a4.44,4.44,0,0,0-3.58-1.76,4.32,4.32,0,0,0-3.47,1.69Q107.2,21,107.2,24.61Z" transform="translate(0.04)"/><path class="cls-3" d="M124.85,12V8.41H128V12Zm0,21.79V15.4H128V33.78Z" transform="translate(0.04)"/><path class="cls-3" d="M132.71,33.78V15.4h2.8V18a6.61,6.61,0,0,1,5.85-3,7.79,7.79,0,0,1,3,.59,4.8,4.8,0,0,1,2.09,1.57,6.13,6.13,0,0,1,1,2.3,18.6,18.6,0,0,1,.17,3v11.3h-3.11V22.6a8.19,8.19,0,0,0-.37-2.85,3,3,0,0,0-1.29-1.5,4.12,4.12,0,0,0-2.17-.56A5,5,0,0,0,137.27,19q-1.46,1.26-1.45,4.79v10Z" transform="translate(0.04)"/><path class="cls-3" d="M151.85,35.3l3,.45a2.86,2.86,0,0,0,1.06,2,5.17,5.17,0,0,0,3.17.87,5.55,5.55,0,0,0,3.34-.87A4.26,4.26,0,0,0,164,35.37a20.15,20.15,0,0,0,.22-4,6.4,6.4,0,0,1-5.08,2.4,6.94,6.94,0,0,1-5.87-2.73,10.58,10.58,0,0,1-2.08-6.56,12.32,12.32,0,0,1,.95-4.86,7.7,7.7,0,0,1,2.76-3.43A7.46,7.46,0,0,1,159.18,15a6.58,6.58,0,0,1,5.37,2.63V15.4h2.87V31.29a15.1,15.1,0,0,1-.87,6.08,6.41,6.41,0,0,1-2.77,2.83,9.65,9.65,0,0,1-4.67,1,8.77,8.77,0,0,1-5.31-1.48A5,5,0,0,1,151.85,35.3Zm2.57-11q0,3.61,1.44,5.28a4.56,4.56,0,0,0,3.6,1.66,4.61,4.61,0,0,0,3.6-1.65q1.45-1.65,1.45-5.18A7.58,7.58,0,0,0,163,19.28a4.64,4.64,0,0,0-3.61-1.71,4.5,4.5,0,0,0-3.53,1.68A7.51,7.51,0,0,0,154.42,24.26Z" transform="translate(0.04)"/><path class="cls-3" d="M170.88,28.29l3.08-.48a4.32,4.32,0,0,0,1.45,2.84,5,5,0,0,0,3.31,1,4.87,4.87,0,0,0,3.18-.87,2.58,2.58,0,0,0,1-2.05,1.89,1.89,0,0,0-.91-1.66A13.51,13.51,0,0,0,178.84,26a28.7,28.7,0,0,1-4.75-1.49,4.53,4.53,0,0,1-2.69-4.22A4.77,4.77,0,0,1,172,18a5.13,5.13,0,0,1,1.53-1.74,6.49,6.49,0,0,1,2-.91,9.3,9.3,0,0,1,2.69-.37,10.72,10.72,0,0,1,3.79.62,5.22,5.22,0,0,1,2.42,1.69,6.65,6.65,0,0,1,1.07,2.84l-3,.42a3.34,3.34,0,0,0-1.21-2.22,4.39,4.39,0,0,0-2.81-.79,5.1,5.1,0,0,0-3.06.71,2.07,2.07,0,0,0-.92,1.66,1.74,1.74,0,0,0,.38,1.09,2.8,2.8,0,0,0,1.2.83c.31.12,1.22.38,2.75.8a38,38,0,0,1,4.61,1.44,4.72,4.72,0,0,1,2.05,1.64,4.51,4.51,0,0,1,.74,2.66,5.23,5.23,0,0,1-.9,2.93,5.85,5.85,0,0,1-2.63,2.13,9.54,9.54,0,0,1-3.87.76,8.64,8.64,0,0,1-5.46-1.49A7,7,0,0,1,170.88,28.29Z" transform="translate(0.04)"/></g></svg>