<svg id="logo" data-name="logo" xmlns="http://www.w3.org/2000/svg" viewBox="0 0 192.61 42.24"><defs><style>.cls-1,.cls-2{fill:#fff;}.cls-2{font-size:35.44px;stroke:#fff;stroke-miterlimit:10;stroke-width:1.3px;font-family:TTNorms-Regular, TT Norms;}</style></defs><path class="cls-1" d="M16.2,31.21h9.9v2.47H16.2Z" transform="translate(-0.04 -4)"/><path class="cls-1" d="M16.2,26.26h9.9v2.47H16.2Z" transform="translate(-0.04 -4)"/><path class="cls-1" d="M16.2,4h9.9v9.89H16.2Z" transform="translate(-0.04 -4)"/><path class="cls-1" d="M16.2,16.37h9.9v2.47H16.2Z" transform="translate(-0.04 -4)"/><path class="cls-1" d="M16.2,21.31h9.9v2.48H16.2Z" transform="translate(-0.04 -4)"/><path class="cls-1" d="M42.26,43.74H39.7V19.19l-5-1.65v26.2H32.28V9H28.57V43.74H26.1V36.15H16.2v7.59H13.73V9H10V43.74H7.55V17.54L2.6,19.19V43.74H0v2.47H42.26Z" transform="translate(-0.04 -4)"/><text class="cls-2" transform="translate(47.62 33.78)">buildings</text></svg>